<svg xmlns="http://www.w3.org/2000/svg" version="1.1" width="50.40899796617731" height="50.40899796617731" style=""><rect id="backgroundrect" width="100%" height="100%" x="0" y="0" fill="none" stroke="none" class="" style=""/>
  
  
  
  
  
  
  
  
<g class="currentLayer" style=""><title>Layer 1</title><g class=""><path id="background" style="fill: rgb(255, 102, 0);" d="M50.45260996238304,50.45260996238304 L4.495557574888775e-16,50.45260996238304 L4.495557574888775e-16,2.8097234843054855e-17 l50.45260996238304,0 l0,50.45260996238304 z" class=""/><path id="letter_o" style="fill: rgb(255, 255, 255);" d="m6.209691377635548,46.383935631633186 c-1.8268928987963857,0 -3.4750147583080078,-1.1632339337895616 -3.4750147583080078,-3.7052137285808597 c0,-2.5419769117850146 1.6481218595116354,-3.7052108455745754 3.4750147583080078,-3.7052108455745754 c1.8268928987963857,0 3.4725657886204333,1.1632339337895616 3.4725657886204333,3.7052108455745754 c0,2.541978353288155 -1.6456728898240602,3.7052137285808597 -3.4725657886204333,3.7052137285808597 m0,-5.848015356356063 c-1.3811897854283137,0 -1.6334283296868182,1.2440503659304492 -1.6334283296868182,2.1428016277752056 c0,0.8987555863541835 0.25223854425850833,2.14525506612252 1.6334283296868182,2.14525506612252 c1.3811897854283137,0 1.6334283296868182,-1.246499479768337 1.6334283296868182,-2.14525506612252 c0,-0.8987512618447577 -0.25223854425850833,-2.1428016277752056 -1.6334283296868182,-2.1428016277752056 " class=""/><path id="letter_r" style="fill: rgb(255, 255, 255);" d="m10.94959674524569,39.158672136039684 l1.7583231890474535,0 l0,0.8252864957269676 c0.33550178383225837,-0.4457041224202629 1.1607871263567002,-0.9697726801372342 1.9346455469452337,-0.9697726801372342 c0.07346764912408049,0 0.16407765361023932,0 0.2399944165722088,0.009802221364120322 l0,1.7362833267611597 l-0.0906100044861567,0 c-0.8032457685388001,0 -1.6824074351376725,0.12489471521030954 -1.9664818645830677,0.7493697327649917 l0,4.670086739539173 l-1.8758712834956555,0 l0,-7.021048628503463 z" class=""/><path id="letter_a" style="fill: rgb(255, 255, 255);" d="m19.7923945568847,45.56847153831433 c-0.7150835805376979,0.4701909362897165 -1.488941568675289,0.6979412251756225 -2.321573964412772,0.6979412251756225 c-1.3101706735408645,0 -2.086477775516344,-0.8718138926342778 -2.086477775516344,-2.042398050943783 c0,-1.5722042316477813 1.444861844102726,-2.4023875135473762 4.422746422956445,-2.737890162281515 l0,-0.3918279424961427 c0,-0.5093753161927864 -0.38692971482036936,-0.8081412573586012 -1.1020132953580648,-0.8081412573586012 c-0.7150850220408494,0 -1.2954774320166773,0.28407414114476903 -1.7142427437233068,0.8081412573586012 l-1.246499479768337,-0.7101853528619214 c0.6538615006030593,-0.9158950587099798 1.6505701084476379,-1.3738418673133914 2.9901287065400197,-1.3738418673133914 c1.8317915589230906,0 2.8603372051570757,0.793449457337566 2.8603372051570757,2.0840272201753134 c0,0 -0.0024505553410300454,5.076609365062646 0,5.088852051245804 l-1.6383274222644797,0 l-0.16407765361023932,-0.6146771206999885 zm-2.588505750195465,-1.4791479963300196 c0,0.47264149163075153 0.2963197103342102,0.9134459448720822 0.8326323957374911,0.9134459448720822 c0.5803938514789784,0 1.1460930199306274,-0.23999153356592431 1.7117936298854195,-0.7395718359103033 l0,-1.6628142361339375 c-1.7264868714096069,0.21305560585857666 -2.544426025622903,0.6587568452725593 -2.544426025622903,1.488941568675289 " class=""/><path id="letter_n" style="fill: rgb(255, 255, 255);" d="m23.055088443485506,39.345770594824195 l1.530573620913106,-0.2106079335238321 l0.168975881286016,0.832633837240626 c0.8620188787858588,-0.6318209175652129 1.5477159762751818,-0.9673235662993444 2.4097348550610405,-0.9673235662993444 c1.444861844102726,0 2.1917810215266873,0.7665120881270739 2.1917810215266873,2.2848386983475906 l0,4.888042014576669 l-1.848932472782026,0 l0,-4.567231165863577 c0,-0.8595712064511125 -0.22285061970698805,-1.2465009212714793 -0.8914053618342349,-1.2465009212714793 c-0.5510073684306015,0 -1.1020132953580648,0.2497894304206172 -1.7313850990853825,0.778757657316514 l0,5.034974429818544 l-1.829342445085217,0 l0,-6.827583050341708 z" class=""/><path id="letter_g" style="fill: rgb(255, 255, 255);" d="m33.8785715384642,44.67067311004629 c1.4007806780270204,-0.009787806332702494 1.5207786070646938,-1.437515944092203 1.5207786070646938,-2.365655130488478 c0,-1.1020132953580648 -0.5363141269064157,-1.990969543354411 -1.5330227347509937,-1.990969543354411 c-0.663657955954619,0 -1.4056789057027979,0.4848841778139043 -1.4056789057027979,2.066886306316379 c0,0.8644679926237472 0.06122207993463923,2.3019810537096665 1.4179230333890966,2.2897383675265077 m3.296243430722641,-5.537003846000811 l0,6.648812155207286 c0,1.1705827168063683 -0.09305911832404615,3.107677521739804 -3.4358313874571365,3.1248198771018814 c-1.3811906503301978,0.009802221364120322 -2.661974840822688,-0.5436600269169382 -2.916662498919081,-1.7485274544474583 l1.8219951035715392,-0.29387059649632546 c0.0759167629619688,0.34529766258255523 0.2889723688205456,0.6881462113272235 1.3224162427303068,0.6881462113272235 c0.9575271109477926,0 1.4179230333890966,-0.4579468086034222 1.4179230333890966,-1.5550633177888458 l0,-0.817937712710154 l-0.024488255372599226,-0.02448969687574078 c-0.29387059649632546,0.526517671554865 -0.7395732774134436,1.0236474185582196 -1.812200089723128,1.0236474185582196 c-1.638325980761338,0 -2.9264560712643513,-1.1362980060822163 -2.9264560712643513,-3.509299036581217 c0,-2.3485127751264017 1.3297621427408295,-3.6635816763430427 2.8211528252540057,-3.66603079018093 c1.4032297918649104,-0.0024505553410300454 1.919952449571361,0.6367191452409833 2.042398050943783,0.9722203524719892 l-0.02448969687574078,-0.0024505553410300454 l0.15428263976182574,-0.839978295748007 l1.559960103961481,0 z" class=""/><path id="letter_e" style="fill: rgb(255, 255, 255);" d="m41.59315327553571,46.30777525464025 c-2.0693354201542675,0 -3.303590772236304,-1.3322126980818585 -3.303590772236304,-3.641542534808332 c0,-2.3362686474401024 1.2489485936062257,-3.66603079018093 3.2742042891879284,-3.66603079018093 c2.0252542540785625,0 3.2301231231122247,1.2905806458440419 3.2301231231122247,3.572971671856885 c0,0.1224456013724203 -0.014694683027329581,0.24244353041009398 -0.014694683027329581,0.3624400179446308 l-4.67498352571181,0 c0.012238361673732365,1.3322112565787163 0.5656991684516491,2.003215112543852 1.6530192222855264,2.003215112543852 c0.6979412251756225,0 1.160787702957957,-0.28162502730688066 1.5942448146856334,-0.8987527033479054 l1.3518041672818233,0.7493682912618504 c-0.5950870930031668,0.9967100493477287 -1.667713905312855,1.518329493226815 -3.1101266355776915,1.518329493226815 m1.3860874365028328,-4.569681721204606 c0,-0.9379356417478271 -0.5387617992411621,-1.491390682513177 -1.4154739195512107,-1.491390682513177 c-0.8350815095753674,0 -1.3567009534544576,0.5412109130790567 -1.4301686025785383,1.491390682513177 l2.8456425221297468,0 z" class=""/><path id="letter_TM" style="fill: rgb(255, 255, 255);" d="m47.95740838604572,36.49450188593207 l-0.6807988698135605,1.7607715821337588 l-0.693044439002988,-1.7607715821337588 l-0.5926379791652784,0 l0,2.321573964412772 l0.3844806009824815,0 l0,-1.9370933634302947 l0.009787806332702494,0 l0.7616138604512912,1.9370933634302947 l0.24489120274484252,0 l0.7567156327755236,-1.9370933634302947 l0.012238361673732365,0 l0,1.9370933634302947 l0.3820314871445905,0 l0,-2.321573964412772 l-0.5852920791547562,0 zm-4.2733620108703985,0 l0,0.3085638380205149 l0.7248800358892515,0 l0,2.013010126392262 l0.3844791594793395,0 l0,-2.013010126392262 l0.7273291497271441,0 l0,-0.3085638380205149 l-1.8366883450957272,0 z" class=""/></g></g></svg>